# xmcd CD database file
#
# Track frame offsets:
#	150
#	29891
#	46296
#	67274
#	81939
#	97549
#	125005
#	153075
#	173232
#	190766
#	213736
#
# Disc length: 3032 seconds
#
# Revision: 0
# Processed by: cddbd v1.5.2PL0 Copyright (c) Steve Scherf et al.
# Submitted via: CDex 1.51
#
DISCID=980bd60b
DTITLE=宮藤晃妃 - That's Life
DYEAR=2014
DGENRE=Jazz
TTITLE0=That's All
TTITLE1=Straight Up and Fly Right
TTITLE2=Very Early
TTITLE3=One Note Samba
TTITLE4=Walkin' My Baby Back Home
TTITLE5=Here's That Rainy Day
TTITLE6=You Don't Know What Love is
TTITLE7=Summer Sun
TTITLE8=Orange Colored Sky
TTITLE9=That's Life
TTITLE10=Very Early (inst ver.)
EXTD=YEAR: 2014
EXTT0=
EXTT1=
EXTT2=
EXTT3=
EXTT4=
EXTT5=
EXTT6=
EXTT7=
EXTT8=
EXTT9=
EXTT10=
PLAYORDER=
